<svg width="186" height="84" viewBox="0 0 186 84" fill="none" xmlns="http://www.w3.org/2000/svg">
<g clip-path="url(#clip0_2029_160)">
<path d="M9.59566 61.3354L8.80597 63.2716C8.51389 63.121 8.18936 63.078 7.76748 63.078C6.63162 63.078 5.74458 63.7449 5.74458 65.1433V66.66H8.90333V68.7253H5.74458V78.6969H3.47287V68.7253H1.20117V66.66H3.47287V65.068C3.47287 62.6155 5.22533 61.0127 7.76748 61.0127C8.53553 61.0235 9.07641 61.1203 9.59566 61.3354Z" fill="#DFDFDD"/>
<path d="M21.9715 72.684C21.9715 76.3413 19.3753 79.0951 15.7514 79.0951C12.1275 79.0951 9.53125 76.3413 9.53125 72.684C9.53125 69.0267 12.1275 66.2729 15.7514 66.2729C19.3753 66.2729 21.9715 69.0267 21.9715 72.684ZM19.6998 72.684C19.6998 69.9303 17.7743 68.3383 15.7514 68.3383C13.7285 68.3383 11.803 69.9303 11.803 72.684C11.803 75.4378 13.7285 77.0298 15.7514 77.0298C17.7743 77.0298 19.6998 75.427 19.6998 72.684Z" fill="#DFDFDD"/>
<path d="M23.7988 78.6969V66.6708H25.9732V68.6393H26.0705C26.5681 67.2624 28.3206 66.3804 29.5754 66.3804C30.311 66.3804 30.8087 66.4772 31.2738 66.6708L30.4084 68.7791C30.0839 68.6608 29.6944 68.607 29.1968 68.607C27.6391 68.607 26.0597 69.9086 26.0597 72.1138V78.6969H23.7988Z" fill="#DFDFDD"/>
<path d="M39.8635 63.2822V68.8543H47.1221V70.9626H39.8635V76.5346H47.9118V78.6968H37.5918V61.1201H47.9118V63.2822H39.8635Z" fill="#DFDFDD"/>
<path d="M52.3803 68.3383H52.4777C53.1159 67.2303 54.652 66.2729 56.3071 66.2729C59.3902 66.2729 60.9263 68.3598 60.9263 71.3287V78.6971H58.6546V71.6729C58.6546 69.1665 57.3997 68.3383 55.6689 68.3383C53.6893 68.3383 52.4885 70.1992 52.4885 72.0494V78.6971H50.2168V66.671H52.3911V68.3383H52.3803Z" fill="#DFDFDD"/>
<path d="M64.2999 75.0393V68.7251H62.1797V66.6598H64.2999V62.981H66.5716V66.6598H69.5357V68.7251H66.5716V74.8672C66.5716 76.2226 67.1342 76.8357 68.2051 76.8357C68.627 76.8357 68.9191 76.782 69.2436 76.6421L70.0333 78.5783C69.514 78.8042 68.9732 78.9011 68.2051 78.9011C65.663 78.8903 64.2999 77.4919 64.2999 75.0393Z" fill="#DFDFDD"/>
<path d="M71.4609 78.6969V66.6708H73.6353V68.6393H73.7326C74.2303 67.2624 75.9827 66.3804 77.2376 66.3804C77.9732 66.3804 78.4708 66.4772 78.9359 66.6708L78.0705 68.7791C77.746 68.6608 77.3566 68.607 76.8589 68.607C75.3012 68.607 73.7218 69.9086 73.7218 72.1138V78.6969H71.4609Z" fill="#DFDFDD"/>
<path d="M78.9922 72.684C78.9922 69.2741 81.3612 66.2729 84.9203 66.2729C88.5225 66.2729 90.8483 68.8008 90.8483 72.684C90.8483 72.8561 90.8267 73.1035 90.8267 73.1035H81.2747C81.3937 75.6529 83.2543 77.0298 85.1258 77.0298C86.4564 77.0298 87.7869 76.4919 88.436 74.9645L90.4589 75.8035C89.7449 77.5246 87.96 79.0951 85.1799 79.0951C81.4586 79.0843 78.9922 76.3091 78.9922 72.684ZM84.8662 68.3383C83.1894 68.3383 81.8589 69.4677 81.4045 71.2318H88.4143C88.3494 70.1777 87.4624 68.3383 84.8662 68.3383Z" fill="#DFDFDD"/>
<path d="M94.8381 77.0298H94.7407L94.8381 78.6971V84.0002H92.5664V66.671H94.7407V68.3383H94.8381C95.5304 67.2303 97.0341 66.2729 98.9596 66.2729C102.021 66.2729 104.715 68.9944 104.715 72.684C104.715 76.3736 102.021 79.0951 98.9596 79.0951C97.0341 79.0843 95.5304 78.127 94.8381 77.0298ZM102.443 72.684C102.443 69.9841 100.615 68.3383 98.5918 68.3383C96.5689 68.3383 94.7407 69.9303 94.7407 72.684C94.7407 75.4378 96.5689 77.0298 98.5918 77.0298C100.615 77.0298 102.443 75.384 102.443 72.684Z" fill="#DFDFDD"/>
<path d="M106.424 78.6969V66.6708H108.598V68.6393H108.696C109.193 67.2624 110.946 66.3804 112.2 66.3804C112.936 66.3804 113.434 66.4772 113.899 66.6708L113.033 68.7791C112.709 68.6608 112.319 68.607 111.822 68.607C110.264 68.607 108.685 69.9086 108.685 72.1138V78.6969H106.424Z" fill="#DFDFDD"/>
<path d="M113.953 72.684C113.953 69.2741 116.322 66.2729 119.881 66.2729C123.483 66.2729 125.809 68.8008 125.809 72.684C125.809 72.8561 125.788 73.1035 125.788 73.1035H116.236C116.355 75.6529 118.215 77.0298 120.087 77.0298C121.417 77.0298 122.748 76.4919 123.397 74.9645L125.42 75.8035C124.706 77.5246 122.932 79.0951 120.141 79.0951C116.42 79.0843 113.953 76.3091 113.953 72.684ZM119.827 68.3383C118.15 68.3383 116.82 69.4677 116.365 71.2318H123.375C123.31 70.1777 122.413 68.3383 119.827 68.3383Z" fill="#DFDFDD"/>
<path d="M129.8 68.3383H129.898C130.536 67.2303 132.072 66.2729 133.727 66.2729C136.81 66.2729 138.346 68.3598 138.346 71.3287V78.6971H136.074V71.6729C136.074 69.1665 134.82 68.3383 133.089 68.3383C131.109 68.3383 129.908 70.1992 129.908 72.0494V78.6971H127.637V66.671H129.811L129.8 68.3383Z" fill="#DFDFDD"/>
<path d="M140.066 72.684C140.066 69.2741 142.435 66.2729 145.994 66.2729C149.597 66.2729 151.923 68.8008 151.923 72.684C151.923 72.8561 151.901 73.1035 151.901 73.1035H142.349C142.468 75.6529 144.329 77.0298 146.2 77.0298C147.531 77.0298 148.861 76.4919 149.51 74.9645L151.533 75.8035C150.819 77.5246 149.034 79.0951 146.254 79.0951C142.533 79.0843 140.066 76.3091 140.066 72.684ZM145.94 68.3383C144.264 68.3383 142.933 69.4677 142.479 71.2318H149.489C149.424 70.1777 148.537 68.3383 145.94 68.3383Z" fill="#DFDFDD"/>
<path d="M162.19 78.697V77.0297H162.093C161.422 78.1377 159.919 79.095 158.264 79.095C155.148 79.095 153.645 77.0082 153.645 74.0393V66.6709H155.916V73.6628C155.916 76.1692 157.171 77.0297 158.902 77.0297C160.882 77.0297 162.082 75.1365 162.082 73.2971V66.6709H164.354V78.697H162.19Z" fill="#DFDFDD"/>
<path d="M166.873 78.6969V66.6708H169.047V68.6393H169.145C169.642 67.2624 171.395 66.3804 172.65 66.3804C173.385 66.3804 173.883 66.4772 174.348 66.6708L173.483 68.7791C173.158 68.6608 172.769 68.607 172.271 68.607C170.713 68.607 169.134 69.9086 169.134 72.1138V78.6969H166.873Z" fill="#DFDFDD"/>
<path d="M174.672 75.6529L176.695 74.8138C177.333 76.3306 178.523 77.0728 179.983 77.0728C181.39 77.0728 182.406 76.3843 182.406 75.384C182.406 74.7708 182.039 74.1039 180.751 73.7919L178.307 73.2003C177.192 72.9314 175.072 71.974 175.072 69.8657C175.072 67.6821 177.344 66.2837 179.864 66.2837C181.963 66.2837 183.791 67.241 184.527 69.0805L182.547 69.8872C182.082 68.7578 180.968 68.2952 179.778 68.2952C178.49 68.2952 177.387 68.8546 177.387 69.8442C177.387 70.6079 178.025 71.0274 178.988 71.2426L181.379 71.8019C183.77 72.3613 184.711 73.835 184.711 75.3087C184.711 77.4493 182.785 79.0843 179.951 79.0843C177.052 79.0843 175.397 77.374 174.672 75.6529Z" fill="#DFDFDD"/>
<path d="M147.77 2.92578H154.39V46.975H147.77V2.92578Z" fill="#DFDFDD"/>
<path d="M63.4464 17.9209C55.106 17.9209 48.3125 24.2244 48.3125 32.9051C48.3125 41.5321 55.106 47.8894 63.4464 47.8894C71.7868 47.8894 78.5802 41.5321 78.5802 32.9051C78.5802 24.2136 71.7868 17.9209 63.4464 17.9209ZM63.4464 41.9839C58.8813 41.9839 54.9437 38.2405 54.9437 32.9051C54.9437 27.516 58.8813 23.8264 63.4464 23.8264C68.0114 23.8264 71.949 27.516 71.949 32.9051C71.949 38.2405 68.0114 41.9839 63.4464 41.9839Z" fill="#DFDFDD"/>
<path d="M24.1666 22.5141V28.8714H39.4627C39.0084 32.4427 37.8076 35.0566 35.9794 36.8745C33.751 39.0904 30.2677 41.5322 24.1666 41.5322C14.7444 41.5322 7.38843 33.9809 7.38843 24.6117C7.38843 15.2425 14.7444 7.70201 24.1666 7.70201C29.2509 7.70201 32.9613 9.69202 35.6982 12.2414L40.2091 7.75579C36.3797 4.11999 31.3062 1.34473 24.1666 1.34473C11.2611 1.34473 0.421875 11.7896 0.421875 24.6225C0.421875 37.4554 11.272 47.9002 24.1666 47.9002C31.1331 47.9002 36.3797 45.6305 40.4904 41.3708C44.7201 37.1649 46.029 31.2702 46.029 26.4942C46.029 25.0205 45.91 23.6544 45.6829 22.5249H24.1666V22.5141Z" fill="#DFDFDD"/>
<path d="M172.541 41.9839C169.177 41.9839 166.775 40.4565 165.228 37.4445L185.381 29.151L184.7 27.4515C183.445 24.1061 179.616 17.9102 171.794 17.9102C164.027 17.9102 157.58 23.9878 157.58 32.8944C157.58 41.2955 163.973 47.8787 172.541 47.8787C179.453 47.8787 183.445 43.6727 185.1 41.2417L179.962 37.8318C178.253 40.3381 175.916 41.9839 172.541 41.9839ZM172.032 23.7081C174.661 23.7081 176.89 25.0097 177.625 26.8921L164.157 32.4534C163.984 26.6555 168.657 23.7081 172.032 23.7081Z" fill="#DFDFDD"/>
<path d="M136.917 21.2663H136.69C135.208 19.5021 132.352 17.9209 128.75 17.9209C121.21 17.9209 114.309 24.5041 114.309 32.9697C114.309 41.3708 121.221 47.9002 128.75 47.9002C132.342 47.9002 135.197 46.3081 136.69 44.4902H136.917V46.6524C136.917 52.3857 133.834 55.4514 128.869 55.4514C124.813 55.4514 122.303 52.5579 121.275 50.1161L115.509 52.5041C117.164 56.4733 121.556 61.3569 128.869 61.3569C136.636 61.3569 143.202 56.8176 143.202 45.7488V18.8245H136.917V21.2663ZM129.323 41.9839C124.758 41.9839 120.929 38.176 120.929 32.9589C120.929 27.6773 124.758 23.8156 129.323 23.8156C133.834 23.8156 137.372 27.6773 137.372 32.9589C137.372 38.1867 133.834 41.9839 129.323 41.9839Z" fill="#DFDFDD"/>
<path d="M96.4386 17.9209C88.0982 17.9209 81.3047 24.2244 81.3047 32.9051C81.3047 41.5321 88.0982 47.8894 96.4386 47.8894C104.779 47.8894 111.572 41.5321 111.572 32.9051C111.572 24.2136 104.779 17.9209 96.4386 17.9209ZM96.4386 41.9839C91.8735 41.9839 87.9359 38.2405 87.9359 32.9051C87.9359 27.516 91.8735 23.8264 96.4386 23.8264C101.004 23.8264 104.941 27.516 104.941 32.9051C104.952 38.2405 101.014 41.9839 96.4386 41.9839Z" fill="#DFDFDD"/>
</g>
<defs>
<clipPath id="clip0_2029_160">
<rect width="185.415" height="84" fill="white"/>
</clipPath>
</defs>
</svg>
