<svg width="237" height="84" viewBox="0 0 237 84" fill="none" xmlns="http://www.w3.org/2000/svg">
<path fill-rule="evenodd" clip-rule="evenodd" d="M0.425781 84V0H236.612V84H0.425781Z" fill="#DFDFDD"/>
<path fill-rule="evenodd" clip-rule="evenodd" d="M118.85 80.5692C150.371 80.5692 182.259 76.9528 211.588 64.8081C220.984 60.9269 233.497 53.5355 233.497 41.9995C233.497 30.4367 220.959 23.0721 211.588 19.191C182.259 7.04756 150.369 3.43115 118.85 3.43115C87.4093 3.43115 55.0981 6.80969 25.9262 19.191C17.2675 22.8598 3.54102 31.0965 3.54102 41.9995C3.54102 52.8756 17.242 61.1379 25.9262 64.8081C55.0968 77.1893 87.4349 80.5692 118.85 80.5692Z" fill="#0F0F0F"/>
<path fill-rule="evenodd" clip-rule="evenodd" d="M152.112 46.0402C151.504 45.6437 150.845 45.3535 150.105 45.3535H139.149V47.1489H153.618C154.328 47.1489 154.99 46.8573 155.597 46.489V57.4431H118.981C119.614 56.915 120.195 56.2551 120.195 55.4098V27.5603C120.195 26.6908 119.614 26.0296 118.981 25.5015H155.596V35.4006C154.99 35.0055 154.328 34.7139 153.616 34.7139H139.148V36.7996H150.103C150.844 36.7996 151.502 36.5348 152.111 36.1142L152.112 46.0402ZM187.087 51.0556H178.985L177.374 55.8331C177.32 56.004 177.293 56.1822 177.294 56.3613C177.294 56.7577 177.426 57.1018 177.611 57.4445H158.946C159.368 57.0225 159.66 56.5749 159.871 56.0186L169.824 29.1703C170.063 28.5104 170.272 27.7982 170.272 27.1115C170.272 26.5309 170.063 26.0027 169.824 25.5015H199.995C199.759 26.0296 199.522 26.5578 199.522 27.1383C199.522 27.8506 199.732 28.5373 199.995 29.1703L210.978 56.0186C211.19 56.6005 211.508 57.0211 211.983 57.4445H188.673C188.83 57.0493 188.938 56.6529 188.938 56.2309C188.938 55.993 188.91 55.7821 188.83 55.5711L187.087 51.0556ZM84.821 45.7217V55.3829C84.821 56.2538 85.376 56.8881 86.009 57.4418H63.9141C64.5215 56.8881 65.1021 56.2538 65.1021 55.3829V27.5872C65.1021 26.6908 64.5215 26.082 63.9141 25.5015H86.0103C85.376 26.0565 84.8223 26.6895 84.8223 27.5872V37.196L91.2367 27.5872C91.4222 27.2969 91.5794 26.9542 91.5794 26.5833C91.5794 26.2137 91.3953 25.8442 91.2367 25.5015H113.043C112.105 25.9903 111.306 26.7077 110.719 27.5872L103.063 38.7012L113.622 55.3843C114.177 56.282 114.942 56.9418 115.892 57.4431H90.4976C90.6817 57.1797 90.9196 56.8894 90.9196 56.5736C90.9196 56.1516 90.7086 55.7283 90.4976 55.3843L84.821 45.7217ZM33.4238 25.5015H56.0469C55.4139 26.0565 54.8589 26.6626 54.8589 27.5603V55.3843C54.8589 56.2551 55.4139 56.8894 56.0469 57.4431H33.4238C34.0313 56.8894 34.585 56.2551 34.585 55.3843V27.5603C34.585 26.6626 34.0313 26.0565 33.4238 25.5015Z" fill="#DFDFDD"/>
</svg>
