<svg width="35" height="35" viewBox="0 0 35 35" fill="none" xmlns="http://www.w3.org/2000/svg">
<path d="M11.3743 2.91602H23.6244C28.291 2.91602 32.0827 6.70768 32.0827 11.3743V23.6244C32.0827 25.8676 31.1915 28.0191 29.6053 29.6053C28.0191 31.1915 25.8676 32.0827 23.6244 32.0827H11.3743C6.70768 32.0827 2.91602 28.291 2.91602 23.6244V11.3743C2.91602 9.13106 3.80716 6.97965 5.3934 5.3934C6.97965 3.80716 9.13106 2.91602 11.3743 2.91602ZM11.0827 5.83268C9.6903 5.83268 8.35494 6.38581 7.37037 7.37037C6.38581 8.35494 5.83268 9.6903 5.83268 11.0827V23.916C5.83268 26.8181 8.1806 29.166 11.0827 29.166H23.916C25.3084 29.166 26.6438 28.6129 27.6283 27.6283C28.6129 26.6438 29.166 25.3084 29.166 23.916V11.0827C29.166 8.1806 26.8181 5.83268 23.916 5.83268H11.0827ZM25.1556 8.02018C25.6391 8.02018 26.1027 8.21224 26.4446 8.5541C26.7865 8.89597 26.9785 9.35963 26.9785 9.8431C26.9785 10.3266 26.7865 10.7902 26.4446 11.1321C26.1027 11.474 25.6391 11.666 25.1556 11.666C24.6721 11.666 24.2085 11.474 23.8666 11.1321C23.5247 10.7902 23.3327 10.3266 23.3327 9.8431C23.3327 9.35963 23.5247 8.89597 23.8666 8.5541C24.2085 8.21224 24.6721 8.02018 25.1556 8.02018ZM17.4993 10.2077C19.4332 10.2077 21.2879 10.9759 22.6553 12.3434C24.0228 13.7108 24.791 15.5655 24.791 17.4993C24.791 19.4332 24.0228 21.2879 22.6553 22.6553C21.2879 24.0228 19.4332 24.791 17.4993 24.791C15.5655 24.791 13.7108 24.0228 12.3434 22.6553C10.9759 21.2879 10.2077 19.4332 10.2077 17.4993C10.2077 15.5655 10.9759 13.7108 12.3434 12.3434C13.7108 10.9759 15.5655 10.2077 17.4993 10.2077ZM17.4993 13.1243C16.339 13.1243 15.2262 13.5853 14.4058 14.4058C13.5853 15.2262 13.1243 16.339 13.1243 17.4993C13.1243 18.6597 13.5853 19.7725 14.4058 20.5929C15.2262 21.4134 16.339 21.8743 17.4993 21.8743C18.6597 21.8743 19.7725 21.4134 20.5929 20.5929C21.4134 19.7725 21.8743 18.6597 21.8743 17.4993C21.8743 16.339 21.4134 15.2262 20.5929 14.4058C19.7725 13.5853 18.6597 13.1243 17.4993 13.1243Z" fill="#6DAF7D"/>
</svg>
