<svg width="337" height="84" viewBox="0 0 337 84" fill="none" xmlns="http://www.w3.org/2000/svg">
<g clip-path="url(#clip0_2030_189)">
<path fill-rule="evenodd" clip-rule="evenodd" d="M18.1133 67.3572L28.7848 19.3164H47.8355L48.7053 46.1537L61.5296 19.3164H80.6256L69.9106 67.3572H56.0788L61.8033 41.5274L48.9354 67.3572H38.9961L38.4923 41.5274L32.081 67.3572H18.1133ZM82.2764 27.1466H95.1442L96.8839 19.3164H83.969L82.2764 27.1466ZM86.2141 67.4043L73.2539 67.3572L81.1765 31.7729H94.1367L86.2141 67.4043ZM135.31 31.7729H146.896L145.889 36.169C147.492 34.1993 149.415 32.9634 151.843 32.1389C153.792 31.4897 155.834 31.1647 157.888 31.1767L154.911 42.7633C154.179 42.7633 145.204 41.0219 142.409 54.716L139.524 67.4008H127.295L135.31 31.7729Z" fill="#DFDFDD"/>
<path fill-rule="evenodd" clip-rule="evenodd" d="M128.534 54.2128C128.534 54.4865 124.458 68.775 106.551 68.4106C82.5514 67.9069 88.7813 29.4376 116.03 30.8112C131.509 31.5886 130.732 44.4582 130.594 45.009H117.221C117.404 44.5053 117.862 39.1922 113.602 39.2846C105.679 39.5147 100.045 59.1598 108.793 59.3446C112.823 59.4823 114.702 54.8107 115.068 54.2163H128.534V54.2128ZM243.439 68.5483C217.381 67.4484 225.211 29.0698 251.958 30.3527C277.101 31.5886 269.954 69.6012 243.439 68.5483ZM251.086 38.732C242.432 36.9924 235.974 57.7845 244.22 59.4788C253.377 61.4032 259.516 40.4281 251.086 38.732Z" fill="#DFDFDD"/>
<path fill-rule="evenodd" clip-rule="evenodd" d="M292.263 26.5052C288.688 26.5052 288.005 27.8788 287.409 30.5806L287.177 31.7712H294.735L296.614 23.1619H308.427L306.595 31.7712H312.686L310.903 39.9692H304.809L301.465 55.5859C301.329 56.4558 301.009 57.2332 301.329 58.1954C301.833 59.6143 306.916 59.0217 306.916 59.0217L304.948 67.1743C304.948 67.1743 294.597 68.3649 291.114 65.9367C289.558 64.8838 287.864 62.6857 288.918 57.9688L292.901 40.0162L285.803 39.9709L279.805 67.3573H267.071L273.026 39.9709H266.475L268.307 31.7729H274.673C275.817 27.1937 276.824 24.0787 279.664 21.6976C283.558 18.5373 293.68 19.7732 293.68 19.7732L292.263 26.5052ZM177.952 55.1746L202.131 55.1292C202.131 55.1292 200.07 60.4876 207.674 60.5347C212.94 60.5347 215 54.5348 207.902 53.2989C204.651 52.7028 192.057 50.5953 193.478 40.8861C194.67 32.9182 202.957 30.1239 212.027 30.2617C230.575 30.49 227.096 41.3916 227.323 42.1237H214.957C214.957 42.1237 216.285 37.5445 210.698 37.5445C205.615 37.5445 204.376 42.1237 210.238 43.3596C217.385 44.9179 225.583 45.284 226.038 54.4895C226.174 57.0554 224.666 69.0517 205.978 68.6874C188.85 68.3213 187.661 60.261 188.118 56.5063C185.003 63.0553 177.216 68.8721 166.822 68.5061C140.764 67.6816 148.686 29.0728 175.386 30.4028C187.523 30.9973 192.15 40.2028 190.682 49.2706C190.454 50.8742 190.318 51.1026 189.857 51.2403L177.952 55.1746ZM174.424 38.6862C165.858 36.9919 159.448 57.6917 167.645 59.433C176.716 61.3121 182.806 40.3823 174.424 38.6862ZM319.833 31.7259C326.016 31.7259 326.016 40.9314 319.833 40.9314C313.65 40.9314 313.65 31.7259 319.833 31.7259ZM319.833 32.5504C314.657 32.5504 314.657 40.0616 319.833 40.0616C325.052 40.0616 325.052 32.5504 319.833 32.5504ZM320.657 36.8542L321.572 38.6862H320.472L319.74 36.8542H319.097L318.825 38.8239H317.861L318.64 33.924H320.884C320.884 33.924 322.12 34.2447 322.027 35.4353C321.893 36.8542 320.75 36.8542 320.657 36.8542ZM320.425 34.5655H319.514L319.282 36.1691H320.197C320.197 36.1691 321.112 36.3069 321.204 35.39C321.204 34.5655 320.425 34.5655 320.425 34.5655Z" fill="#DFDFDD"/>
</g>
<defs>
<clipPath id="clip0_2030_189">
<rect width="336" height="84" fill="white" transform="translate(0.425781)"/>
</clipPath>
</defs>
</svg>
