<svg width="84" height="84" viewBox="0 0 84 84" fill="none" xmlns="http://www.w3.org/2000/svg">
<g clip-path="url(#clip0_2029_158)">
<path d="M42 0C18.8033 0 0 18.8033 0 42C0 65.1967 18.8033 84 42 84C65.1967 84 84 65.1967 84 42C84 18.8061 65.1967 0.00286592 42 0ZM61.2618 60.574C60.5081 61.8121 58.8946 62.199 57.6622 61.4452C47.8006 55.4182 35.3855 54.0569 20.7664 57.3957C19.3564 57.7196 17.9521 56.8368 17.6311 55.4268C17.3073 54.0168 18.1871 52.6125 19.6 52.2915C35.5975 48.6375 49.3224 50.2108 60.3935 56.9744C61.6258 57.7339 62.0184 59.3417 61.2618 60.574ZM66.4004 49.1419C65.4518 50.6837 63.4342 51.1652 61.8952 50.2194C50.6092 43.2811 33.3965 41.2721 20.0442 45.3245C18.3132 45.8489 16.4847 44.8717 15.9574 43.1435C15.4358 41.4125 16.4131 39.5869 18.1412 39.0596C33.3937 34.4311 52.3574 36.6723 65.32 44.6395C66.8618 45.5881 67.349 47.6029 66.4004 49.1419ZM66.8418 37.2311C53.3032 29.1922 30.972 28.4528 18.0467 32.3734C15.9718 33.0039 13.7765 31.8317 13.1488 29.7568C12.5212 27.6819 13.6905 25.4866 15.7683 24.8561C30.6051 20.3537 55.2663 21.2221 70.8512 30.4733C72.7169 31.5824 73.3302 33.9926 72.224 35.8555C71.1206 37.7241 68.7046 38.3402 66.8418 37.2311Z" fill="#DFDFDD"/>
</g>
<defs>
<clipPath id="clip0_2029_158">
<rect width="84" height="84" fill="white"/>
</clipPath>
</defs>
</svg>
