<svg width="254" height="84" viewBox="0 0 254 84" fill="none" xmlns="http://www.w3.org/2000/svg">
<g clip-path="url(#clip0_2029_187)">
<path d="M253.267 19.9983C249.827 0.244247 190.473 -5.92038 120.691 6.22867C91.3854 11.3335 64.9236 18.8629 44.3165 27.3336C47.482 27.4029 49.8296 28.1287 51.2561 29.5514C52.3713 30.6679 52.9346 32.2003 52.9346 34.1094V36.0689H46.092V34.3387C46.092 32.8971 45.2276 32.0037 43.6965 32.0037C42.4099 32.0037 41.6172 32.5846 41.3614 33.7288C41.2757 34.1811 41.2851 34.6464 41.3892 35.0948C42.1213 38.0877 52.2818 39.9464 53.387 45.4696C53.5319 46.1803 53.7285 47.7013 53.4185 49.8776C52.7846 54.3322 48.8706 56.051 43.888 56.051C36.9333 56.051 34.108 52.757 34.108 48.2154L34.1131 46.0669H41.4484L41.4522 48.7434C41.4522 50.2481 42.546 51.0785 44.0355 51.0785C45.4468 51.0785 46.271 50.5102 46.5558 49.3483C46.6881 48.814 46.746 48.0264 46.5053 47.4241C45.1482 44.0192 35.6605 42.4289 34.4924 36.9233C34.2315 35.6858 34.2101 34.6323 34.4269 33.3004C34.5381 32.6401 34.7426 31.999 35.0342 31.3963C12.1765 42.0861 -1.19492 53.8483 0.571799 64.0038C4.01578 83.7604 63.3686 89.9187 133.149 77.7696C163.824 72.4304 191.401 64.4373 212.388 55.4802C212.085 55.4953 211.79 55.5281 211.475 55.5281C206.699 55.5281 202.434 53.7387 201.992 48.8569C201.914 47.9685 201.9 47.5967 201.898 47.0901L201.9 35.8673C201.9 35.3834 201.957 34.534 202.011 34.0955C202.577 29.3775 206.307 27.4319 211.477 27.4319C215.478 27.4319 220.384 28.5799 220.923 34.0993C220.995 34.7924 220.988 35.5321 220.986 35.7753V36.8351H214.076V35.2536C214.076 35.2196 214.066 34.6286 213.99 34.2593C213.877 33.6961 213.396 32.3905 211.428 32.3905C209.484 32.3905 208.98 33.6986 208.854 34.2606C208.782 34.5693 208.748 35.0129 208.748 35.5044V47.7013C208.741 48.1247 208.763 48.4561 208.806 48.6993C208.84 48.8909 209.189 50.5719 211.452 50.5719C213.699 50.5719 214.047 48.8909 214.078 48.6993C214.137 48.3692 214.145 47.976 214.142 47.7013V43.9221H211.423V39.8519H221.039V47.0927C221.037 47.5854 221.029 47.9496 220.946 48.8569C220.83 50.1372 220.427 51.2209 219.794 52.1471C242.052 41.5783 255.011 30.0063 253.267 19.9983ZM72.3257 55.0089L68.825 31.2224H68.699L65.1089 55.0089H57.7307L62.6932 28.1464H74.7313L79.6635 55.0089H72.3257ZM107.814 55.0089L107.651 31.6823H107.533L103.192 55.0089H96.2672L91.9474 31.6823H91.824L91.6664 55.0089H84.8049L85.3997 28.1464H96.4361L99.6495 48.1008H99.807L103.029 28.1464H114.06L114.653 55.0089H107.814ZM140.125 49.8032C139.387 55.0064 134.29 55.9162 130.687 55.9162C124.705 55.9162 121.005 53.3594 121.005 48.1562L121.009 46.0341H128.256L128.261 48.6779C128.261 50.1132 129.273 50.9915 130.836 50.9915C132.229 50.9915 133.046 50.432 133.329 49.2828C133.46 48.7472 133.515 47.9659 133.283 47.3762C131.947 44.0355 122.534 42.3986 121.389 36.9787C121.127 35.7501 121.108 34.7067 121.324 33.3886C122.12 28.4753 126.836 27.4546 130.631 27.4546C134.026 27.4546 136.497 28.1955 137.979 29.6775C139.084 30.7839 139.644 32.3023 139.644 34.1913V36.1294H132.867V34.4194C132.867 32.9551 131.958 32.1083 130.498 32.1083C129.202 32.1083 128.419 32.6842 128.161 33.817C128.078 34.2647 128.089 34.7248 128.194 35.1679C128.92 38.1469 138.991 39.9678 140.094 45.4393C140.236 46.1375 140.432 47.6358 140.125 49.8032ZM165.225 47.3623C165.235 47.8664 165.186 48.8732 165.158 49.1316C164.745 53.5572 161.579 55.8066 155.774 55.8066C149.946 55.8066 146.778 53.5572 146.367 49.1316C146.32 48.5447 146.298 47.9561 146.3 47.3674V28.1401H153.233V47.9735C153.226 48.4171 153.248 48.7447 153.293 48.9728C153.378 49.4138 153.817 50.8454 155.774 50.8454C157.725 50.8454 158.163 49.4126 158.255 48.9778C158.294 48.7435 158.318 48.3994 158.318 47.9722V28.1401H165.225V47.3623ZM195.097 54.7354H185.449L178.973 33.4579H178.865L179.224 54.7354H172.5V28.1464H182.552L188.538 48.5859H188.677L188.323 28.1464H195.097V54.7354Z" fill="#DFDFDD"/>
</g>
<defs>
<clipPath id="clip0_2029_187">
<rect width="253.012" height="84" fill="white" transform="translate(0.414062)"/>
</clipPath>
</defs>
</svg>
