<svg width="35" height="36" viewBox="0 0 35 36" fill="none" xmlns="http://www.w3.org/2000/svg">
<circle cx="17.5" cy="17.5" r="17" transform="matrix(-1 0 0 1 35 0.5)" stroke="#6DAF7D"/>
<path d="M15.9595 26.3052L16.0569 26.405C16.1565 26.4664 16.2709 26.4996 16.3884 26.5C16.5586 26.5007 16.723 26.4324 16.8453 26.3087C16.9677 26.1848 17.0377 26.0154 17.0383 25.8376C17.0389 25.6597 16.9701 25.4898 16.8485 25.3651L16.8484 25.3649L10.3981 18.7361L9.98515 18.3117H10.5772H27.7393C27.9094 18.3117 28.0735 18.2429 28.1952 18.1188C28.3171 17.9946 28.3865 17.8251 28.3865 17.6474C28.3865 17.4697 28.3171 17.3002 28.1952 17.176C28.0735 17.0519 27.9094 16.9831 27.7393 16.9831H10.5772H9.98515L10.3981 16.5587L16.8484 9.92984L16.8618 9.91607L16.8772 9.9045C16.9518 9.84831 17.014 9.77617 17.0594 9.69274C17.1048 9.60929 17.1321 9.51663 17.1395 9.42105C17.1468 9.32546 17.1339 9.22946 17.1017 9.13961C17.0695 9.04978 17.0189 8.96839 16.9535 8.90084C16.8882 8.83329 16.8097 8.78115 16.7235 8.74764C16.6373 8.71414 16.5452 8.69995 16.4534 8.70592C16.3616 8.71189 16.272 8.73789 16.1905 8.78239C16.109 8.8269 16.0374 8.88895 15.9809 8.96462L15.971 8.97782L15.9595 8.98961L7.50854 17.6474L15.9595 26.3052Z" fill="#6DAF7D" stroke="#6DAF7D" stroke-width="0.5"/>
</svg>
